<?xml version="1.0" encoding="utf-8"?>
<!-- Generator: Adobe Illustrator 15.0.2, SVG Export Plug-In . SVG Version: 6.00 Build 0)  -->
<!DOCTYPE svg PUBLIC "-//W3C//DTD SVG 1.1//EN" "http://www.w3.org/Graphics/SVG/1.1/DTD/svg11.dtd">
<svg version="1.1" id="Layer_1" xmlns="http://www.w3.org/2000/svg" xmlns:xlink="http://www.w3.org/1999/xlink" x="0px" y="0px"
	 width="288.659px" height="57.07px" viewBox="0 0 288.659 57.07" enable-background="new 0 0 288.659 57.07" xml:space="preserve">
<g>
	<path fill="#303030" d="M270.377,36.661c0,0.526,0.428,0.954,0.953,0.954c0.529,0,0.956-0.428,0.956-0.954
		c0-0.525-0.427-0.953-0.956-0.953C270.805,35.708,270.377,36.135,270.377,36.661z M270.82,10.492
		c0.659-0.512,2.867-1.16,2.93-0.222c0.148-1.315-1.392-1.829-2.271-1.539c-2.95,0.985-3.729,3.667-3.666,6.893
		c0.073,3.811,2.641,7.399,5.29,9.172c0,0-0.964-0.892-2.134-2.356c-1.176-1.466-1.469-2.788-1.398-3.521
		c0.074-0.733,0.074-1.464,1.689-2.27c1.611-0.809,1.611-1.834,2.125-2.347c0.514-0.512,1.173-0.145,1.173-0.145
		c-2.859-2.055-4.765,0.73-5.133,2.051c-0.365,1.32-0.73,1.392-0.73,1.392s-0.736-1.173-0.149-3.443
		C268.956,12.58,269.614,11.43,270.82,10.492z M270.258,9.744c1.529-1.165,3.073-0.324,2.978-0.35
		c0.012,0.003-1.428-0.328-2.72,0.706c-1.305,0.946-1.875,2.242-1.896,2.226C268.634,12.374,268.795,10.834,270.258,9.744z
		 M270.73,14.935c1.007-1.036,2.258-0.987,2.215-1c-0.007,0.025-1.036,0.392-1.909,1.312c-0.932,0.861-1.386,1.886-1.466,1.842
		C269.647,17.149,269.688,15.917,270.73,14.935z M14.455,9.697c1.345-3.009-2.491-6.597-4.251-3.37
		c-0.751,1.384,0.736,2.197,0.736,2.197S9.034,8.815,8.886,6.471c-0.163-2.648,3.633-4.632,8.062-1.905
		c3.812,2.345,5.688,7.966,4.985,12.021c-0.588,3.372-2.488,6.45-5.718,8.21c-0.354,0.193-0.737,0.345-1.134,0.463v1.491
		c0.805-0.158,1.636-0.405,2.488-0.762c1.82-0.76,3.539-2.452,4.833-4.765c2.152-3.861,2.502-8.476,1.009-13.349
		c-0.119-0.386-0.256-0.762-0.413-1.13h242.665c-0.155,0.368-0.295,0.744-0.414,1.13c-1.492,4.874-1.142,9.488,1.01,13.349
		c1.292,2.313,3.007,4.004,4.833,4.765c0.679,0.286,1.351,0.503,2.009,0.66v-1.553c-0.226-0.09-0.448-0.186-0.658-0.299
		c-3.225-1.76-5.131-4.838-5.718-8.21c-0.703-4.055,1.176-9.676,4.984-12.021c4.431-2.727,8.229-0.743,8.063,1.905
		c-0.145,2.344-2.055,2.052-2.055,2.052s1.49-0.813,0.732-2.197c-1.758-3.227-5.586,0.359-4.25,3.37
		c1.212,2.725,5.023,3.605,7.771,0.881c2.286-2.267,1.99-6.379-0.312-8.407c-0.729-0.639-1.682-1.228-2.582-1.583
		c-2.385-0.942-5.388-0.744-8.026,0.531c-1.271,0.613-2.375,1.446-3.304,2.438H20.915c-0.927-0.992-2.034-1.825-3.307-2.438
		c-2.64-1.275-5.644-1.473-8.028-0.531C6.826,1.674,4.883,4.211,5.068,7.251c0.077,1.312,0.665,2.426,1.618,3.327
		C9.378,13.106,13.288,12.326,14.455,9.697z M271.33,19.435c-0.525,0-0.953,0.426-0.953,0.95c0,0.526,0.428,0.957,0.953,0.957
		c0.529,0,0.956-0.43,0.956-0.957C272.286,19.861,271.859,19.435,271.33,19.435z M273.687,32.012c0,0.647,0.529,1.172,1.176,1.172
		c0.647,0,1.174-0.525,1.174-1.172V25.06c0-0.647-0.526-1.17-1.174-1.17c-0.646,0-1.176,0.523-1.176,1.17V32.012z M285.806,26.513
		c-1.052-0.577-2.247-1.059-3.302-1.059c-1.585,0-2.871,1.23-2.983,2.786c0.223,0,2.542,0,2.535,0
		C282.08,28.24,284.223,28.151,285.806,26.513z M269.424,40.841c0.368,1.317,2.274,4.103,5.133,2.05c0,0-0.659,0.367-1.173-0.145
		c-0.514-0.515-0.514-1.542-2.125-2.345c-1.615-0.809-1.615-1.541-1.689-2.273c-0.071-0.734,0.222-2.052,1.398-3.519
		c1.17-1.464,2.134-2.357,2.134-2.357c-2.648,1.769-5.216,5.362-5.29,9.173c-0.062,3.224,0.716,5.908,3.666,6.89
		c0.879,0.292,2.419-0.22,2.271-1.541c-0.062,0.941-2.271,0.297-2.93-0.217c-1.206-0.94-1.864-2.089-2.275-3.667
		c-0.587-2.273,0.149-3.443,0.149-3.443S269.06,39.52,269.424,40.841z M271.036,41.803c0.873,0.917,1.902,1.287,1.909,1.31
		c0.043-0.012-1.208,0.034-2.215-0.999c-1.042-0.981-1.083-2.215-1.16-2.154C269.65,39.916,270.104,40.938,271.036,41.803z
		 M270.516,46.945c1.292,1.038,2.731,0.706,2.72,0.711c0.096-0.026-1.449,0.814-2.978-0.358c-1.463-1.084-1.624-2.624-1.638-2.575
		C268.641,44.707,269.211,46.005,270.516,46.945z M280.358,38.727c2.036-1.699,1.612-4.938,0.05-6.729
		c-1.041-1.195-2.342-1.851-3.786-2.077v1.712c1.376,0.272,2.585,1.042,3.151,2.405c0.734,1.757-0.294,4.834-2.933,4.103
		c0,0,1.027-0.442,1.469-1.174c0.438-0.734-0.095-2.329-1.025-2.638c-1.322-0.442-3.801,0.603-2.934,3.079
		C275.377,40.339,278.6,40.197,280.358,38.727z M276.622,25.436v1.709c1.444-0.225,2.745-0.874,3.786-2.071
		c1.562-1.789,1.986-5.03-0.05-6.729c-1.758-1.466-4.98-1.61-6.008,1.319c-0.867,2.476,1.611,3.516,2.934,3.076
		c0.931-0.31,1.463-1.904,1.025-2.636c-0.441-0.734-1.469-1.175-1.469-1.175c2.639-0.73,3.667,2.347,2.933,4.107
		C279.207,24.394,277.998,25.169,276.622,25.436z M12.151,25.06v6.953c0,0.647,0.526,1.172,1.173,1.172
		c0.647,0,1.173-0.525,1.173-1.172V25.06c0-0.647-0.525-1.17-1.173-1.17C12.677,23.89,12.151,24.413,12.151,25.06z M9.141,28.24
		c-0.116-1.556-1.398-2.786-2.983-2.786c-1.057,0-2.25,0.482-3.307,1.059c1.591,1.638,3.729,1.727,3.755,1.727
		C6.6,28.24,8.918,28.24,9.141,28.24z M9.141,28.681H6.6c-0.006,0-0.021,0-0.027-0.003c-1.229,0.472-2.013,1.131-2.889,2.159
		c0.816,0.366,1.677,0.628,2.473,0.628C7.743,31.464,9.025,30.233,9.141,28.681z M5.75,28.563c-0.852-0.176-2.194-0.641-3.292-1.827
		C1.062,27.555,0,28.458,0,28.458s1.487,1.294,3.275,2.185C4.049,29.722,4.774,29.058,5.75,28.563z M274.201,47.376
		c-1.74,2.793,2.492,6.595,4.25,3.373c0.758-1.387-0.732-2.201-0.732-2.201s1.91-0.292,2.055,2.053
		c0.166,2.651-3.633,4.631-8.063,1.904c-3.808-2.346-5.687-7.964-4.984-12.019c0.587-3.372,2.494-6.447,5.718-8.211
		c0.21-0.112,0.433-0.211,0.658-0.298v-1.557c-0.658,0.157-1.33,0.376-2.009,0.662c-1.826,0.76-3.542,2.454-4.833,4.768
		c-2.152,3.855-2.502,8.472-1.01,13.345c0.119,0.39,0.259,0.764,0.414,1.131H22.999c0.154-0.367,0.294-0.742,0.413-1.131
		c1.493-4.873,1.143-9.49-1.009-13.345c-1.294-2.314-3.014-4.008-4.833-4.768c-0.855-0.356-1.686-0.603-2.488-0.76v1.486
		c0.397,0.12,0.781,0.274,1.134,0.467c3.23,1.764,5.13,4.839,5.718,8.211c0.703,4.054-1.173,9.673-4.985,12.019
		c-4.429,2.727-8.226,0.747-8.062-1.904c0.148-2.344,2.054-2.053,2.054-2.053s-1.487,0.814-0.736,2.201
		c1.76,3.222,5.866-0.5,4.251-3.373c-1.461-2.608-4.785-3.392-7.769-0.878c-2.428,2.047-1.992,6.364,0.276,8.376
		c0.736,0.649,1.704,1.249,2.619,1.609c2.384,0.94,5.388,0.739,8.028-0.532c1.273-0.612,2.378-1.444,3.304-2.438h246.836
		c0.929,0.993,2.033,1.825,3.304,2.438c2.639,1.271,5.642,1.473,8.026,0.532c2.677-1.055,4.757-3.568,4.514-6.559
		c-0.113-1.395-0.671-2.366-1.619-3.427C279.906,44.184,276.196,44.184,274.201,47.376z M286.204,26.736
		c-1.102,1.186-2.438,1.651-3.295,1.827c0.976,0.494,1.7,1.159,2.477,2.08c1.789-0.891,3.273-2.185,3.273-2.185
		S287.598,27.555,286.204,26.736z M282.092,28.678c-0.013,0.003-0.024,0.003-0.029,0.003h-2.542
		c0.112,1.553,1.398,2.784,2.983,2.784c0.796,0,1.656-0.262,2.47-0.628C284.101,29.809,283.315,29.149,282.092,28.678z
		 M16.984,16.65c1.615,0.806,1.615,1.537,1.686,2.27c0.071,0.732-0.22,2.055-1.393,3.521c-1.176,1.465-2.137,2.356-2.137,2.356
		c2.651-1.773,5.216-5.362,5.287-9.172c0.062-3.226-0.712-5.907-3.663-6.893c-0.882-0.29-2.423,0.223-2.271,1.539
		c0.063-0.938,2.271-0.291,2.933,0.222c1.202,0.938,1.865,2.087,2.269,3.667c0.588,2.27-0.143,3.443-0.143,3.443
		s-0.368-0.072-0.737-1.392c-0.365-1.321-2.271-4.105-5.129-2.051c0,0,0.656-0.368,1.172,0.145
		C15.369,14.816,15.369,15.841,16.984,16.65z M17.726,10.1c-1.291-1.034-2.731-0.702-2.722-0.706
		c-0.095,0.026,1.451-0.814,2.98,0.35c1.464,1.09,1.624,2.629,1.639,2.582C19.603,12.342,19.03,11.045,17.726,10.1z M17.512,14.935
		c1.04,0.982,1.081,2.214,1.158,2.155c-0.081,0.043-0.529-0.981-1.466-1.842c-0.87-0.92-1.897-1.288-1.903-1.312
		C15.256,13.948,16.506,13.899,17.512,14.935z M8.3,18.346c-2.037,1.699-1.609,4.94-0.05,6.729c0.926,1.063,2.063,1.687,3.313,1.978
		v-1.731c-1.172-0.342-2.176-1.086-2.677-2.285c-0.734-1.76,0.297-4.837,2.93-4.107c0,0-1.021,0.441-1.464,1.175
		c-0.439,0.732,0.096,2.327,1.027,2.636c1.321,0.44,3.8-0.6,2.93-3.076C13.285,16.735,10.061,16.879,8.3,18.346z M16.913,37.615
		c0.526,0,0.95-0.428,0.95-0.954c0-0.525-0.424-0.953-0.95-0.953c-0.528,0-0.956,0.428-0.956,0.953
		C15.957,37.187,16.384,37.615,16.913,37.615z M13.686,42.892c2.859,2.052,4.765-0.733,5.129-2.05
		c0.369-1.321,0.737-1.393,0.737-1.393s0.73,1.17,0.143,3.443c-0.404,1.577-1.066,2.726-2.269,3.667
		c-0.662,0.514-2.87,1.159-2.933,0.217c-0.151,1.321,1.39,1.833,2.271,1.541c2.951-0.982,3.726-3.667,3.663-6.89
		c-0.071-3.811-2.636-7.404-5.287-9.173c0,0,0.961,0.893,2.137,2.357c1.173,1.466,1.464,2.784,1.393,3.519
		c-0.071,0.733-0.071,1.464-1.686,2.273c-1.615,0.804-1.615,1.83-2.126,2.345C14.342,43.258,13.686,42.892,13.686,42.892z
		 M17.984,47.299c-1.529,1.172-3.075,0.332-2.98,0.358c-0.009-0.006,1.431,0.326,2.722-0.711c1.304-0.94,1.876-2.238,1.897-2.221
		C19.608,44.675,19.448,46.214,17.984,47.299z M17.204,41.803c0.938-0.864,1.386-1.887,1.466-1.843
		c-0.077-0.062-0.119,1.172-1.158,2.154c-1.006,1.033-2.256,0.987-2.211,0.999C15.307,43.089,16.334,42.72,17.204,41.803z
		 M11.563,31.751v-1.73c-1.25,0.287-2.387,0.916-3.313,1.978c-1.559,1.79-1.986,5.03,0.05,6.729c1.761,1.47,4.985,1.612,6.009-1.318
		c0.87-2.476-1.609-3.521-2.93-3.079c-0.932,0.309-1.466,1.904-1.027,2.638c0.443,0.731,1.464,1.174,1.464,1.174
		c-2.633,0.731-3.664-2.345-2.93-4.103C9.387,32.835,10.391,32.095,11.563,31.751z M267.171,29.969
		c0.285-0.189,0.577-0.377,0.885-0.561l0.285-0.169c0.724-0.253,0.977,0.285,1.855,0.039c0.88-0.242,1.615-1.025,1.615-1.025
		c-0.638-0.391-1.811-0.879-2.348-0.733c-0.673,0.184-1.074,0.343-1.659-0.047l-0.006,0.026c-9.764-6.028-7.908-16.086-7.829-16.516
		l0.143-0.701H28.547l0.14,0.703c0.086,0.432,1.98,10.67-8.081,16.679l-0.05,0.032c-0.407,0.126-0.763,0.003-1.28-0.136
		c-0.54-0.148-1.713,0.34-2.348,0.73c0,0,0.733,0.782,1.615,1.028c0.867,0.24,1.123-0.277,1.832-0.049l0.232,0.14
		c9.907,5.918,8.22,15.933,8.09,16.648l0.012-0.039l-0.021,0.071c0.003-0.007,0.006-0.023,0.009-0.032l-0.247,0.733h231.665
		l-0.146-0.701c-0.077-0.421-1.854-10.023,7.152-16.089v0.014C267.12,30.014,267.141,29.992,267.171,29.969z M258.725,45.618H29.934
		c0.27-2.549,0.502-11.5-8.44-17.033c-0.023-0.016-0.05-0.034-0.077-0.049c0.027-0.014,0.054-0.029,0.077-0.047
		c8.942-5.533,8.71-14.484,8.44-17.032h228.779c0,0-2,10.572,8.455,17.032c0.024,0.018,0.052,0.033,0.075,0.047
		c-0.023,0.015-0.051,0.033-0.075,0.049C258.226,34.117,258.458,43.069,258.725,45.618z M17.863,20.385
		c0-0.524-0.424-0.95-0.95-0.95c-0.528,0-0.956,0.426-0.956,0.95c0,0.526,0.427,0.957,0.956,0.957
		C17.438,21.341,17.863,20.911,17.863,20.385z"/>
</g>
<g>
	<path fill="#303030" d="M88.141,35.372l-3.484-0.156l-2.158,0.156c-0.312,0-0.468-0.269-0.468-0.806l1.664-0.364V23.828
		l-1.664-0.364c0-0.537,0.156-0.806,0.468-0.806c0.26,0,0.979,0.026,2.158,0.078l2.314-0.078c1.334,0,2.375,0.316,3.12,0.949
		c0.745,0.633,1.118,1.383,1.118,2.249c0,0.538-0.152,1.049-0.455,1.534s-0.732,0.875-1.287,1.17
		c0.918,0.277,1.616,0.715,2.093,1.313c0.477,0.598,0.715,1.252,0.715,1.963c0,1.005-0.373,1.846-1.118,2.522
		C90.412,35.034,89.406,35.372,88.141,35.372z M86.763,23.646l-1.378,0.208l0.182,4.394h1.326c0.797-0.069,1.417-0.333,1.859-0.793
		c0.442-0.459,0.663-0.979,0.663-1.56c0-0.581-0.238-1.096-0.715-1.547C88.223,23.897,87.578,23.663,86.763,23.646z M85.385,34.072
		c0.832,0.139,1.642,0.208,2.431,0.208s1.417-0.238,1.885-0.715c0.468-0.477,0.702-1.053,0.702-1.729
		c0-0.676-0.277-1.278-0.832-1.807c-0.555-0.529-1.3-0.81-2.236-0.845l-1.768,0.208L85.385,34.072z"/>
	<path fill="#303030" d="M96.539,34.202l1.742,0.364c0,0.538-0.156,0.806-0.468,0.806c-0.139,0-0.893-0.026-2.262-0.078
		l-1.794,0.078c-0.295,0-0.442-0.26-0.442-0.78l1.508-0.39l4.394-11.544h1.69l4.446,11.518l1.508,0.416
		c0,0.52-0.152,0.78-0.455,0.78s-1.001-0.026-2.093-0.078l-2.262,0.078c-0.312,0-0.468-0.269-0.468-0.806l1.768-0.364l-1.04-2.886
		l-4.836,0.26L96.539,34.202z M99.893,24.66l-1.976,5.564h3.978L99.893,24.66z"/>
	<path fill="#303030" d="M118.613,31.627l-0.156,2.756c-1.127,0.797-2.609,1.196-4.446,1.196s-3.337-0.567-4.498-1.703
		c-1.161-1.135-1.742-2.756-1.742-4.862s0.624-3.727,1.872-4.862c1.248-1.135,2.834-1.703,4.758-1.703
		c1.56,0,2.929,0.381,4.108,1.144l-0.546,2.86c-0.746,0-1.118-0.139-1.118-0.416v-1.872c-0.728-0.243-1.551-0.364-2.47-0.364
		c-0.919,0-1.829,0.13-2.73,0.39c-0.555,0.416-1.006,1.053-1.352,1.911c-0.347,0.858-0.52,1.816-0.52,2.873
		c0,1.733,0.42,3.06,1.261,3.978c0.841,0.919,1.876,1.378,3.107,1.378s2.201-0.199,2.912-0.598l0.442-1.768
		C117.582,31.741,117.954,31.627,118.613,31.627z"/>
	<path fill="#303030" d="M122.695,23.828l-1.664-0.364c0-0.537,0.156-0.806,0.468-0.806c0.26,0,0.979,0.026,2.158,0.078l1.846-0.078
		c0.294,0,0.442,0.26,0.442,0.78l-1.482,0.39l0.208,4.654h1.846l2.574-4.68l-1.092-0.338c0-0.537,0.147-0.806,0.442-0.806l1.3,0.078
		l1.794-0.078c0.294,0,0.442,0.26,0.442,0.78l-1.326,0.416l-2.912,4.94l4.29,6.734l-1.3,0.39l-4.576-6.474l-1.508,0.182
		l-0.182,4.576l1.976,0.364c0,0.538-0.147,0.806-0.442,0.806l-2.34-0.156l-2.158,0.156c-0.312,0-0.468-0.269-0.468-0.806
		l1.664-0.364V23.828z"/>
	<path fill="#303030" d="M148.928,23.854l-2.964,0.052v10.218l2.106,0.442c0,0.538-0.147,0.806-0.442,0.806l-2.522-0.156
		l-2.574,0.156c-0.329,0-0.494-0.269-0.494-0.806l2.106-0.442V23.906l-2.938-0.052l-0.26,1.82c0,0.26-0.347,0.39-1.04,0.39
		l-0.26-3.068c0.035-0.225,0.294-0.338,0.78-0.338l4.68,0.104l4.602-0.104c0.485,0,0.745,0.113,0.78,0.338l-0.26,3.068
		c-0.693,0-1.04-0.13-1.04-0.39L148.928,23.854z"/>
	<path fill="#303030" d="M158.496,22.45c1.889,0,3.441,0.546,4.654,1.638c1.213,1.092,1.82,2.704,1.82,4.836
		c0,2.132-0.611,3.775-1.833,4.927c-1.222,1.153-2.812,1.729-4.771,1.729c-1.959,0-3.523-0.567-4.693-1.703
		c-1.17-1.135-1.755-2.756-1.755-4.862s0.624-3.727,1.872-4.862C155.038,23.018,156.606,22.45,158.496,22.45z M153.946,28.976
		c0,1.768,0.416,3.12,1.248,4.056s1.915,1.404,3.25,1.404c1.334,0,2.418-0.468,3.25-1.404s1.248-2.271,1.248-4.004
		c0-1.733-0.416-3.055-1.248-3.965s-1.916-1.365-3.25-1.365c-0.867,0-1.751,0.13-2.652,0.39c-0.555,0.416-1.001,1.062-1.339,1.937
		C154.115,26.9,153.946,27.884,153.946,28.976z"/>
	<path fill="#303030" d="M181.791,23.854l-2.964,0.052v10.218l2.106,0.442c0,0.538-0.147,0.806-0.442,0.806l-2.522-0.156
		l-2.574,0.156c-0.329,0-0.494-0.269-0.494-0.806l2.106-0.442V23.906l-2.938-0.052l-0.26,1.82c0,0.26-0.347,0.39-1.04,0.39
		l-0.26-3.068c0.035-0.225,0.294-0.338,0.78-0.338l4.68,0.104l4.602-0.104c0.485,0,0.745,0.113,0.78,0.338l-0.26,3.068
		c-0.693,0-1.04-0.13-1.04-0.39L181.791,23.854z"/>
	<path fill="#303030" d="M191.358,22.45c1.889,0,3.441,0.546,4.654,1.638c1.213,1.092,1.82,2.704,1.82,4.836
		c0,2.132-0.611,3.775-1.833,4.927c-1.222,1.153-2.812,1.729-4.771,1.729c-1.959,0-3.523-0.567-4.693-1.703
		c-1.17-1.135-1.755-2.756-1.755-4.862s0.624-3.727,1.872-4.862C187.9,23.018,189.469,22.45,191.358,22.45z M186.809,28.976
		c0,1.768,0.416,3.12,1.248,4.056s1.915,1.404,3.25,1.404c1.334,0,2.418-0.468,3.25-1.404s1.248-2.271,1.248-4.004
		c0-1.733-0.416-3.055-1.248-3.965s-1.916-1.365-3.25-1.365c-0.867,0-1.751,0.13-2.652,0.39c-0.555,0.416-1.001,1.062-1.339,1.937
		C186.978,26.9,186.809,27.884,186.809,28.976z"/>
	<path fill="#303030" d="M202.799,22.735l2.86-0.078c1.248,0,2.245,0.373,2.99,1.118c0.745,0.746,1.118,1.668,1.118,2.769
		c0,1.101-0.429,2.054-1.287,2.86c-0.858,0.806-2.076,1.244-3.653,1.313l-1.04,0.052l-0.182,3.432l2.21,0.364
		c0,0.538-0.147,0.806-0.442,0.806l-2.574-0.156l-2.158,0.156c-0.312,0-0.468-0.269-0.468-0.806l1.664-0.364V23.828l-1.664-0.364
		c0-0.537,0.156-0.806,0.468-0.806C200.901,22.658,201.62,22.684,202.799,22.735z M203.604,23.879l0.234,5.72l1.118,0.052
		c0.971-0.034,1.725-0.359,2.262-0.975c0.537-0.615,0.806-1.317,0.806-2.106s-0.23-1.46-0.689-2.015s-1.131-0.841-2.015-0.858
		L203.604,23.879z"/>
</g>
</svg>
